# xmcd
#
# Track frame offsets:
#	150
#	12091
#	27649
#	39764
#	55687
#	67519
#	78213
#	90221
#	105872
#	116548
#
# Disc length: 1734 seconds
# Revision: 0
# Processed by: cddbd v1.5.2PL0 Copyright (c) Steve Scherf et al.
# Submitted via: dBpowerAMP V12.0
#
DISCID=5a06c40a
DTITLE=Bradley and Adair - Oh Darlin'
DYEAR=2020
DGENRE=Bluegrass
TTITLE0=Oh Darlin'
TTITLE1=Mommy Please Stay Home With Me
TTITLE2=Send Me
TTITLE3=Wicked Twisted Road
TTITLE4=Apartment Number 9
TTITLE5=The Log Train
TTITLE6=Pick Me Up On Your Way Down
TTITLE7=Singing Waterfall
TTITLE8=Hold to God's Unchanging Hand
TTITLE9=Rockin' In an Old Rocking Chair
EXTD=
EXTT0=
EXTT1=
EXTT2=
EXTT3=
EXTT4=
EXTT5=
EXTT6=
EXTT7=
EXTT8=
EXTT9=
PLAYORDER=
